<svg id="svg" version="1.1" xmlns="http://www.w3.org/2000/svg" xmlns:xlink="http://www.w3.org/1999/xlink" width="400" height="301.1764705882353" viewBox="0, 0, 400,301.1764705882353"><g id="svgg"><path id="path0" d="M192.620 45.518 C 188.816 45.901,181.572 46.909,179.066 47.404 C 175.591 48.090,173.687 48.518,172.892 48.790 C 172.477 48.932,171.325 49.278,170.331 49.559 C 168.405 50.104,166.198 50.814,165.211 51.207 C 164.880 51.339,163.727 51.755,162.651 52.131 C 147.576 57.397,130.921 69.209,119.561 82.690 C 111.816 91.881,104.900 103.603,101.529 113.253 C 101.153 114.330,100.734 115.482,100.598 115.813 C 100.248 116.668,99.681 118.368,99.393 119.428 C 99.258 119.925,98.855 121.348,98.497 122.590 C 97.505 126.036,96.708 129.847,95.726 135.843 C 94.753 141.790,94.748 159.631,95.719 165.361 C 96.992 172.879,97.932 177.160,99.156 181.024 C 99.947 183.522,100.380 184.828,100.605 185.392 C 100.737 185.723,101.153 186.875,101.529 187.952 C 102.344 190.287,103.155 192.152,105.193 196.386 C 117.436 221.812,140.274 241.937,166.566 250.465 C 167.974 250.922,169.398 251.399,169.729 251.526 C 170.341 251.759,172.067 252.219,174.247 252.727 C 174.910 252.882,175.926 253.137,176.506 253.295 C 177.470 253.557,179.610 253.963,184.505 254.812 C 192.404 256.181,207.596 256.181,215.495 254.812 C 220.390 253.963,222.530 253.557,223.494 253.295 C 224.074 253.137,225.124 252.874,225.828 252.709 C 226.532 252.544,227.684 252.268,228.389 252.096 C 229.751 251.762,236.489 249.540,237.500 249.092 C 237.831 248.945,239.322 248.333,240.813 247.731 C 265.122 237.925,287.254 215.791,297.125 191.416 C 297.729 189.925,298.342 188.434,298.488 188.102 C 298.941 187.072,301.154 180.342,301.508 178.916 C 304.299 167.694,305.271 160.376,305.271 150.602 C 305.271 145.473,304.798 138.627,304.196 135.034 C 303.338 129.914,301.581 122.034,300.919 120.331 C 300.790 120.000,300.449 118.983,300.161 118.072 C 291.617 91.071,270.952 67.570,245.096 55.449 C 240.693 53.385,239.553 52.896,237.349 52.129 C 236.273 51.754,235.120 51.335,234.789 51.197 C 225.062 47.156,204.222 44.349,192.620 45.518 M250.074 106.072 C 253.776 107.350,259.021 112.039,259.038 114.087 C 259.039 114.208,259.273 114.714,259.558 115.211 C 260.317 116.535,260.317 124.429,259.558 125.753 C 259.273 126.250,259.039 126.759,259.038 126.883 C 259.037 127.008,258.642 127.743,258.160 128.517 C 257.019 130.351,195.195 192.233,193.223 193.516 C 189.039 196.237,183.024 196.619,178.464 194.454 C 174.663 192.649,143.158 161.190,141.185 157.229 L 139.910 154.669 139.910 150.602 L 139.910 146.536 141.019 144.267 C 143.824 138.530,148.550 135.542,154.819 135.542 C 161.025 135.542,161.488 135.854,174.473 148.772 L 184.941 159.184 210.317 133.848 C 224.274 119.912,236.303 108.107,237.048 107.613 C 240.446 105.362,246.085 104.695,250.074 106.072 " stroke="none" fill="#3ce43c" fill-rule="evenodd"></path><path id="path1" d="M0.000 150.602 L 0.000 301.205 200.000 301.205 L 400.000 301.205 400.000 150.602 L 400.000 0.000 200.000 0.000 L 0.000 0.000 0.000 150.602 M215.361 46.050 C 217.598 46.408,219.970 46.821,220.633 46.968 C 221.295 47.115,222.786 47.445,223.946 47.700 C 227.743 48.537,231.780 49.689,234.639 50.752 C 245.750 54.882,252.609 58.459,261.947 64.991 C 263.546 66.109,267.011 68.829,268.353 70.018 C 273.544 74.618,277.621 78.737,281.184 82.983 C 288.392 91.571,295.116 103.005,298.632 112.651 C 299.085 113.893,299.646 115.337,299.879 115.859 C 300.111 116.381,300.301 117.065,300.301 117.380 C 300.301 117.694,300.418 118.081,300.561 118.238 C 300.704 118.395,300.961 119.066,301.134 119.729 C 301.306 120.392,301.870 122.560,302.388 124.547 C 306.621 140.810,306.575 161.035,302.268 177.259 C 301.271 181.014,300.162 184.689,299.723 185.693 C 299.578 186.024,299.029 187.447,298.504 188.855 C 297.148 192.486,294.243 198.671,291.994 202.711 C 286.558 212.476,276.527 224.524,268.045 231.476 C 267.641 231.807,266.634 232.636,265.809 233.318 C 258.652 239.224,246.854 245.968,237.952 249.241 C 236.709 249.698,235.422 250.188,235.090 250.330 C 233.493 251.016,226.757 252.933,223.193 253.716 C 214.538 255.616,210.803 255.981,200.000 255.981 C 188.175 255.981,181.884 255.212,172.289 252.593 C 171.378 252.344,170.023 251.979,169.277 251.782 C 168.532 251.584,167.793 251.306,167.636 251.163 C 167.478 251.020,167.092 250.904,166.777 250.904 C 166.463 250.904,165.778 250.718,165.256 250.492 C 164.734 250.266,163.291 249.705,162.048 249.246 C 146.195 243.389,130.975 232.483,118.963 218.373 C 116.016 214.911,115.043 213.592,111.302 207.982 C 106.293 200.471,100.662 188.286,98.775 180.873 C 98.648 180.377,98.279 179.021,97.954 177.861 C 95.372 168.658,94.740 163.363,94.734 150.904 C 94.730 143.511,94.853 139.374,95.131 137.500 C 96.021 131.508,96.881 127.198,97.957 123.343 C 98.280 122.184,98.648 120.828,98.774 120.331 C 99.137 118.897,101.557 111.929,101.808 111.596 C 101.933 111.431,102.135 110.956,102.258 110.542 C 103.104 107.690,107.833 98.577,111.080 93.539 C 119.229 80.898,130.242 69.890,142.999 61.635 C 147.832 58.507,159.090 52.711,160.332 52.711 C 160.547 52.711,160.852 52.588,161.009 52.439 C 161.775 51.710,171.885 48.612,177.259 47.459 C 178.584 47.175,180.211 46.818,180.873 46.665 C 181.980 46.410,183.911 46.134,189.157 45.481 C 193.337 44.960,210.944 45.343,215.361 46.050 M242.385 105.880 C 237.535 106.938,237.927 106.592,210.301 134.228 C 196.496 148.038,185.107 159.337,184.993 159.337 C 184.879 159.337,180.449 154.992,175.149 149.681 C 169.849 144.370,164.894 139.566,164.138 139.005 C 150.373 128.779,133.205 144.779,142.645 159.036 C 144.368 161.639,174.461 191.682,176.807 193.142 C 181.733 196.207,186.349 196.458,191.756 193.955 C 194.857 192.519,256.857 130.563,258.381 127.377 C 263.824 115.997,254.353 103.269,242.385 105.880 " stroke="none" fill="#fcfcfc" fill-rule="evenodd"></path><path id="path2" d="M191.340 45.388 C 191.630 45.464,192.105 45.464,192.395 45.388 C 192.684 45.313,192.447 45.251,191.867 45.251 C 191.288 45.251,191.050 45.313,191.340 45.388 M207.605 45.388 C 207.895 45.464,208.370 45.464,208.660 45.388 C 208.950 45.313,208.712 45.251,208.133 45.251 C 207.553 45.251,207.316 45.313,207.605 45.388 M188.178 45.694 C 188.550 45.766,189.160 45.766,189.533 45.694 C 189.906 45.623,189.601 45.564,188.855 45.564 C 188.110 45.564,187.805 45.623,188.178 45.694 M210.772 45.695 C 211.146 45.767,211.688 45.764,211.976 45.689 C 212.264 45.613,211.958 45.555,211.295 45.558 C 210.633 45.561,210.397 45.623,210.772 45.695 M177.861 47.289 C 177.482 47.452,177.426 47.548,177.711 47.548 C 177.959 47.548,178.434 47.432,178.765 47.289 C 179.145 47.126,179.200 47.030,178.916 47.030 C 178.667 47.030,178.193 47.147,177.861 47.289 M221.235 47.289 C 221.566 47.432,222.041 47.548,222.289 47.548 C 222.574 47.548,222.518 47.452,222.139 47.289 C 221.807 47.147,221.333 47.030,221.084 47.030 C 220.800 47.030,220.855 47.126,221.235 47.289 M262.349 65.445 C 262.349 65.502,262.790 65.872,263.328 66.266 C 263.934 66.709,264.144 66.782,263.880 66.457 C 263.479 65.963,262.349 65.216,262.349 65.445 M133.860 68.245 L 132.681 69.321 133.961 68.345 C 135.131 67.453,135.416 67.169,135.141 67.169 C 135.085 67.169,134.509 67.653,133.860 68.245 M266.331 68.534 C 266.782 69.008,267.204 69.335,267.270 69.261 C 267.336 69.187,266.968 68.799,266.451 68.399 L 265.512 67.672 266.331 68.534 M128.454 72.967 L 126.657 74.849 128.539 73.052 C 130.288 71.382,130.560 71.084,130.337 71.084 C 130.290 71.084,129.443 71.931,128.454 72.967 M270.771 72.364 C 271.509 73.151,272.153 73.795,272.201 73.795 C 272.427 73.795,272.188 73.525,270.858 72.277 L 269.428 70.934 270.771 72.364 M125.136 75.979 L 123.946 77.259 125.226 76.068 C 126.416 74.961,126.644 74.699,126.417 74.699 C 126.367 74.699,125.791 75.275,125.136 75.979 M274.548 75.904 C 275.195 76.566,275.792 77.108,275.875 77.108 C 275.958 77.108,275.496 76.566,274.849 75.904 C 274.202 75.241,273.605 74.699,273.522 74.699 C 273.439 74.699,273.901 75.241,274.548 75.904 M122.590 78.765 C 121.859 79.511,121.328 80.120,121.411 80.120 C 121.494 80.120,122.160 79.511,122.892 78.765 C 123.623 78.020,124.154 77.410,124.071 77.410 C 123.988 77.410,123.322 78.020,122.590 78.765 M279.058 80.798 C 280.033 81.916,280.886 82.831,280.955 82.831 C 281.154 82.831,278.753 80.031,277.984 79.367 C 277.600 79.036,278.083 79.680,279.058 80.798 M282.345 84.728 C 282.984 85.507,283.569 86.145,283.646 86.145 C 283.851 86.145,281.944 83.780,281.534 83.527 C 281.342 83.408,281.707 83.949,282.345 84.728 M284.336 87.274 C 284.731 87.813,285.100 88.253,285.158 88.253 C 285.386 88.253,284.640 87.123,284.146 86.722 C 283.820 86.458,283.893 86.668,284.336 87.274 M242.169 105.723 C 241.572 105.914,241.541 105.964,242.018 105.964 C 242.349 105.964,242.959 105.856,243.373 105.723 C 243.970 105.532,244.001 105.482,243.524 105.482 C 243.193 105.482,242.583 105.590,242.169 105.723 M246.988 105.723 C 247.402 105.856,248.012 105.964,248.343 105.964 C 248.820 105.964,248.789 105.914,248.193 105.723 C 247.779 105.590,247.169 105.482,246.837 105.482 C 246.360 105.482,246.392 105.532,246.988 105.723 M235.935 108.606 L 235.090 109.381 236.069 108.700 C 236.608 108.326,237.048 107.977,237.048 107.925 C 237.048 107.688,236.715 107.891,235.935 108.606 M253.313 107.915 C 253.313 107.972,253.754 108.342,254.292 108.736 C 254.898 109.179,255.108 109.252,254.844 108.927 C 254.443 108.433,253.313 107.686,253.313 107.915 M297.340 109.955 C 297.516 110.461,297.716 110.818,297.784 110.750 C 297.933 110.601,297.365 109.036,297.162 109.036 C 297.083 109.036,297.163 109.450,297.340 109.955 M256.927 111.370 C 257.321 111.909,257.690 112.349,257.748 112.349 C 257.977 112.349,257.230 111.220,256.736 110.819 C 256.411 110.554,256.483 110.765,256.927 111.370 M299.749 116.280 C 299.925 116.786,300.126 117.144,300.194 117.075 C 300.343 116.926,299.775 115.361,299.571 115.361 C 299.493 115.361,299.573 115.775,299.749 116.280 M96.558 128.787 C 96.447 129.228,96.414 129.647,96.485 129.718 C 96.556 129.789,96.705 129.486,96.816 129.045 C 96.927 128.603,96.959 128.184,96.888 128.113 C 96.817 128.042,96.668 128.345,96.558 128.787 M303.986 132.831 C 303.986 133.411,304.048 133.648,304.123 133.358 C 304.199 133.069,304.199 132.594,304.123 132.304 C 304.048 132.014,303.986 132.252,303.986 132.831 M252.393 134.563 L 251.355 135.693 252.485 134.655 C 253.536 133.689,253.753 133.434,253.523 133.434 C 253.473 133.434,252.964 133.942,252.393 134.563 M151.807 135.843 C 151.211 136.034,151.180 136.085,151.657 136.085 C 151.988 136.085,152.598 135.976,153.012 135.843 C 153.608 135.652,153.640 135.602,153.163 135.602 C 152.831 135.602,152.221 135.711,151.807 135.843 M156.627 135.843 C 157.041 135.976,157.651 136.085,157.982 136.085 C 158.459 136.085,158.428 136.034,157.831 135.843 C 157.417 135.711,156.807 135.602,156.476 135.602 C 155.999 135.602,156.030 135.652,156.627 135.843 M249.984 136.973 L 248.946 138.102 250.075 137.064 C 251.127 136.098,251.343 135.843,251.113 135.843 C 251.063 135.843,250.555 136.352,249.984 136.973 M304.735 138.102 C 304.827 139.096,304.952 139.966,305.012 140.035 C 305.222 140.278,305.057 137.792,304.814 137.048 C 304.660 136.580,304.630 136.980,304.735 138.102 M162.952 138.035 C 162.952 138.093,163.392 138.462,163.931 138.856 C 164.536 139.300,164.747 139.373,164.483 139.047 C 164.081 138.553,162.952 137.806,162.952 138.035 M94.962 139.458 C 94.962 140.203,95.020 140.508,95.092 140.136 C 95.164 139.763,95.164 139.153,95.092 138.780 C 95.020 138.407,94.962 138.712,94.962 139.458 M245.623 141.340 L 243.825 143.223 245.708 141.425 C 246.743 140.436,247.590 139.589,247.590 139.543 C 247.590 139.320,247.293 139.592,245.623 141.340 M305.190 142.470 C 305.190 143.050,305.252 143.287,305.328 142.997 C 305.404 142.707,305.404 142.233,305.328 141.943 C 305.252 141.653,305.190 141.890,305.190 142.470 M94.648 142.771 C 94.648 143.351,94.710 143.588,94.786 143.298 C 94.862 143.008,94.862 142.534,94.786 142.244 C 94.710 141.954,94.648 142.191,94.648 142.771 M242.454 144.503 L 241.416 145.633 242.545 144.595 C 243.597 143.628,243.813 143.373,243.583 143.373 C 243.533 143.373,243.025 143.882,242.454 144.503 M139.947 147.929 C 139.712 149.108,139.754 152.630,140.015 153.557 C 140.123 153.939,140.211 152.618,140.211 150.620 C 140.211 146.592,140.212 146.605,139.947 147.929 M238.093 148.870 L 236.295 150.753 238.178 148.955 C 239.213 147.966,240.060 147.119,240.060 147.073 C 240.060 146.850,239.763 147.122,238.093 148.870 M234.924 152.033 L 233.886 153.163 235.015 152.125 C 236.066 151.158,236.283 150.904,236.053 150.904 C 236.003 150.904,235.494 151.412,234.924 152.033 M230.563 156.401 L 228.765 158.283 230.648 156.485 C 231.683 155.497,232.530 154.649,232.530 154.603 C 232.530 154.380,232.233 154.652,230.563 156.401 M94.654 158.584 C 94.658 159.247,94.719 159.483,94.791 159.108 C 94.863 158.733,94.861 158.191,94.785 157.903 C 94.710 157.615,94.651 157.922,94.654 158.584 M305.190 158.735 C 305.190 159.315,305.252 159.552,305.328 159.262 C 305.404 158.972,305.404 158.498,305.328 158.208 C 305.252 157.918,305.190 158.155,305.190 158.735 M227.393 159.563 L 226.355 160.693 227.485 159.655 C 228.536 158.689,228.753 158.434,228.523 158.434 C 228.473 158.434,227.964 158.942,227.393 159.563 M142.443 159.287 C 142.605 159.590,142.975 160.031,143.264 160.266 C 143.589 160.530,143.517 160.320,143.073 159.714 C 142.282 158.633,141.985 158.432,142.443 159.287 M94.955 161.898 C 94.959 162.560,95.021 162.796,95.093 162.421 C 95.165 162.047,95.162 161.504,95.086 161.216 C 95.011 160.928,94.952 161.235,94.955 161.898 M304.867 161.935 C 304.841 162.453,304.752 163.334,304.670 163.893 L 304.520 164.910 304.837 163.899 C 305.011 163.344,305.100 162.463,305.035 161.942 L 304.916 160.994 304.867 161.935 M221.832 165.136 L 218.825 168.223 221.913 165.216 C 223.611 163.563,225.000 162.174,225.000 162.129 C 225.000 161.911,224.624 162.268,221.832 165.136 M303.986 168.373 C 303.986 168.953,304.048 169.191,304.123 168.901 C 304.199 168.611,304.199 168.136,304.123 167.846 C 304.048 167.556,303.986 167.794,303.986 168.373 M214.302 172.666 L 211.295 175.753 214.383 172.747 C 216.081 171.093,217.470 169.704,217.470 169.659 C 217.470 169.441,217.094 169.798,214.302 172.666 M96.428 171.687 C 96.428 171.935,96.544 172.410,96.687 172.741 C 96.850 173.121,96.946 173.176,96.946 172.892 C 96.946 172.643,96.829 172.169,96.687 171.837 C 96.524 171.458,96.428 171.402,96.428 171.687 M206.771 180.196 L 203.765 183.283 206.852 180.277 C 209.720 177.484,210.077 177.108,209.859 177.108 C 209.814 177.108,208.425 178.498,206.771 180.196 M299.749 184.924 C 299.573 185.430,299.493 185.843,299.571 185.843 C 299.775 185.843,300.343 184.279,300.194 184.130 C 300.126 184.061,299.925 184.419,299.749 184.924 M198.645 188.253 C 196.662 190.241,195.107 191.867,195.190 191.867 C 195.273 191.867,196.963 190.241,198.946 188.253 C 200.929 186.265,202.483 184.639,202.400 184.639 C 202.317 184.639,200.627 186.265,198.645 188.253 M175.276 192.278 C 175.678 192.772,176.807 193.519,176.807 193.290 C 176.807 193.233,176.367 192.863,175.828 192.469 C 175.223 192.025,175.012 191.953,175.276 192.278 M284.469 213.756 C 284.005 214.365,283.779 214.767,283.967 214.651 C 284.353 214.413,285.657 212.651,285.448 212.651 C 285.373 212.651,284.933 213.148,284.469 213.756 M115.033 213.504 C 115.196 213.807,115.565 214.248,115.854 214.483 C 116.180 214.747,116.107 214.536,115.664 213.931 C 114.872 212.850,114.576 212.649,115.033 213.504 M117.165 216.261 C 117.688 216.921,118.274 217.559,118.466 217.678 C 118.658 217.796,118.293 217.256,117.655 216.477 C 117.016 215.698,116.431 215.060,116.354 215.060 C 116.277 215.060,116.642 215.601,117.165 216.261 M281.325 217.771 C 280.632 218.599,280.132 219.277,280.215 219.277 C 280.298 219.277,280.933 218.599,281.627 217.771 C 282.320 216.943,282.820 216.265,282.737 216.265 C 282.654 216.265,282.019 216.943,281.325 217.771 M278.614 220.934 C 277.883 221.679,277.352 222.289,277.435 222.289 C 277.518 222.289,278.184 221.679,278.916 220.934 C 279.647 220.188,280.178 219.578,280.095 219.578 C 280.012 219.578,279.346 220.188,278.614 220.934 M121.674 221.461 C 122.922 222.791,123.193 223.030,123.193 222.804 C 123.193 222.755,122.549 222.112,121.762 221.373 L 120.331 220.030 121.674 221.461 M274.387 225.527 L 272.741 227.259 274.473 225.613 C 276.082 224.083,276.343 223.795,276.119 223.795 C 276.072 223.795,275.293 224.575,274.387 225.527 M125.151 225.301 C 125.798 225.964,126.395 226.506,126.478 226.506 C 126.561 226.506,126.099 225.964,125.452 225.301 C 124.805 224.639,124.208 224.096,124.125 224.096 C 124.042 224.096,124.504 224.639,125.151 225.301 M128.765 228.586 C 129.429 229.355,132.229 231.757,132.229 231.557 C 132.229 231.489,131.314 230.635,130.196 229.660 C 129.078 228.686,128.434 228.202,128.765 228.586 M269.428 230.028 C 268.349 231.034,268.106 231.344,268.825 230.797 C 269.962 229.931,271.641 228.297,271.363 228.327 C 271.292 228.335,270.422 229.100,269.428 230.028 M132.555 232.003 C 132.624 232.044,133.087 232.417,133.584 232.831 L 134.488 233.584 133.758 232.756 C 133.356 232.300,132.893 231.928,132.729 231.928 C 132.564 231.928,132.486 231.962,132.555 232.003 M135.542 234.331 C 136.122 234.855,136.867 235.426,137.199 235.600 C 137.998 236.021,137.503 235.569,135.843 234.364 L 134.488 233.379 135.542 234.331 M262.801 235.418 L 261.898 236.194 262.877 235.547 C 263.415 235.190,263.855 234.840,263.855 234.769 C 263.855 234.543,263.728 234.622,262.801 235.418 M141.867 238.844 C 142.282 239.191,142.892 239.616,143.223 239.788 C 143.634 240.001,143.586 239.900,143.072 239.469 C 142.658 239.122,142.048 238.698,141.717 238.525 C 141.306 238.312,141.354 238.413,141.867 238.844 M158.434 247.764 C 158.434 247.967,159.998 248.536,160.148 248.387 C 160.216 248.318,159.858 248.118,159.353 247.942 C 158.847 247.766,158.434 247.686,158.434 247.764 M164.759 250.174 C 164.759 250.377,166.324 250.945,166.473 250.796 C 166.541 250.728,166.183 250.528,165.678 250.352 C 165.173 250.175,164.759 250.095,164.759 250.174 M234.187 250.462 C 233.430 250.827,233.406 250.868,234.036 250.716 C 234.450 250.616,234.918 250.414,235.075 250.267 C 235.466 249.903,235.251 249.950,234.187 250.462 M180.572 254.510 C 181.148 254.765,183.068 254.937,182.806 254.711 C 182.737 254.651,182.071 254.521,181.325 254.423 C 180.420 254.303,180.170 254.332,180.572 254.510 M218.072 254.518 C 217.043 254.735,217.039 254.740,217.922 254.758 C 218.419 254.769,219.096 254.660,219.428 254.518 C 220.152 254.207,219.551 254.207,218.072 254.518 M186.446 255.416 C 187.190 255.660,189.676 255.825,189.433 255.614 C 189.364 255.554,188.494 255.430,187.500 255.337 C 186.377 255.233,185.978 255.263,186.446 255.416 M211.747 255.422 L 210.392 255.632 211.596 255.648 C 212.259 255.656,213.140 255.554,213.554 255.422 C 214.505 255.117,213.707 255.117,211.747 255.422 M191.340 255.931 C 191.630 256.006,192.105 256.006,192.395 255.931 C 192.684 255.855,192.447 255.793,191.867 255.793 C 191.288 255.793,191.050 255.855,191.340 255.931 M207.605 255.931 C 207.895 256.006,208.370 256.006,208.660 255.931 C 208.950 255.855,208.712 255.793,208.133 255.793 C 207.553 255.793,207.316 255.855,207.605 255.931 " stroke="none" fill="#b4f4b4" fill-rule="evenodd"></path><path id="path3" d="" stroke="none" fill="#9cf49c" fill-rule="evenodd"></path><path id="path4" d="M191.416 45.482 C 189.978 45.679,189.964 45.689,191.114 45.709 C 191.777 45.721,192.997 45.625,193.825 45.496 C 195.858 45.179,193.713 45.167,191.416 45.482 M206.325 45.484 C 207.705 45.743,210.444 45.875,210.216 45.671 C 210.147 45.610,208.938 45.485,207.530 45.394 C 205.670 45.274,205.340 45.299,206.325 45.484 M131.758 70.256 L 130.873 71.235 131.852 70.350 C 132.765 69.526,132.970 69.277,132.737 69.277 C 132.685 69.277,132.245 69.718,131.758 70.256 M129.650 72.063 L 128.765 73.042 129.744 72.158 C 130.656 71.333,130.861 71.084,130.629 71.084 C 130.577 71.084,130.136 71.525,129.650 72.063 M125.301 76.054 C 124.570 76.800,124.039 77.410,124.122 77.410 C 124.204 77.410,124.871 76.800,125.602 76.054 C 126.334 75.309,126.865 74.699,126.782 74.699 C 126.699 74.699,126.033 75.309,125.301 76.054 M274.385 75.979 C 275.124 76.766,275.767 77.410,275.816 77.410 C 276.042 77.410,275.803 77.139,274.473 75.891 L 273.042 74.548 274.385 75.979 M121.369 80.346 L 120.331 81.476 121.461 80.438 C 122.082 79.867,122.590 79.359,122.590 79.308 C 122.590 79.078,122.335 79.295,121.369 80.346 M232.213 111.973 L 231.175 113.102 232.304 112.064 C 233.356 111.098,233.572 110.843,233.342 110.843 C 233.292 110.843,232.784 111.352,232.213 111.973 M224.683 119.503 L 223.645 120.633 224.774 119.595 C 225.825 118.628,226.042 118.373,225.812 118.373 C 225.762 118.373,225.253 118.882,224.683 119.503 M221.369 122.816 L 220.331 123.946 221.461 122.908 C 222.512 121.942,222.729 121.687,222.499 121.687 C 222.449 121.687,221.940 122.195,221.369 122.816 M97.324 126.255 C 97.305 126.532,97.211 127.006,97.116 127.310 C 96.952 127.833,96.960 127.833,97.287 127.325 C 97.476 127.030,97.570 126.555,97.495 126.271 C 97.373 125.804,97.356 125.803,97.324 126.255 M217.152 127.033 L 216.114 128.163 217.244 127.125 C 218.295 126.158,218.512 125.904,218.282 125.904 C 218.232 125.904,217.723 126.412,217.152 127.033 M303.063 128.916 C 303.079 129.698,303.553 130.984,303.563 130.271 C 303.568 129.940,303.456 129.398,303.313 129.066 C 303.155 128.697,303.058 128.639,303.063 128.916 M213.839 130.346 L 212.801 131.476 213.931 130.438 C 214.982 129.472,215.199 129.217,214.969 129.217 C 214.918 129.217,214.410 129.725,213.839 130.346 M209.622 134.563 L 208.584 135.693 209.714 134.655 C 210.765 133.689,210.982 133.434,210.752 133.434 C 210.702 133.434,210.193 133.942,209.622 134.563 M206.309 137.877 L 205.271 139.006 206.401 137.968 C 207.452 137.002,207.669 136.747,207.439 136.747 C 207.388 136.747,206.880 137.255,206.309 137.877 M304.910 141.566 C 304.910 142.477,304.966 142.850,305.035 142.395 C 305.104 141.939,305.104 141.194,305.035 140.738 C 304.966 140.282,304.910 140.655,304.910 141.566 M94.966 142.018 C 94.968 142.846,95.026 143.149,95.096 142.692 C 95.165 142.234,95.163 141.556,95.092 141.186 C 95.020 140.815,94.963 141.190,94.966 142.018 M202.092 142.093 L 201.054 143.223 202.184 142.185 C 203.235 141.219,203.452 140.964,203.222 140.964 C 203.171 140.964,202.663 141.472,202.092 142.093 M305.203 144.578 C 305.203 145.324,305.261 145.629,305.333 145.256 C 305.405 144.883,305.405 144.273,305.333 143.901 C 305.261 143.528,305.203 143.833,305.203 144.578 M94.708 150.602 C 94.708 154.495,94.751 156.088,94.803 154.142 C 94.856 152.195,94.856 149.010,94.803 147.063 C 94.751 145.117,94.708 146.709,94.708 150.602 M198.779 145.407 L 197.741 146.536 198.870 145.498 C 199.922 144.532,200.138 144.277,199.908 144.277 C 199.858 144.277,199.350 144.785,198.779 145.407 M194.562 149.623 L 193.524 150.753 194.654 149.715 C 195.705 148.749,195.922 148.494,195.692 148.494 C 195.641 148.494,195.133 149.002,194.562 149.623 M191.249 152.937 L 190.211 154.066 191.340 153.028 C 192.392 152.062,192.608 151.807,192.378 151.807 C 192.328 151.807,191.820 152.316,191.249 152.937 M305.203 156.627 C 305.203 157.372,305.261 157.677,305.333 157.304 C 305.405 156.931,305.405 156.322,305.333 155.949 C 305.261 155.576,305.203 155.881,305.203 156.627 M187.032 157.154 L 185.994 158.283 187.123 157.245 C 188.175 156.279,188.392 156.024,188.161 156.024 C 188.111 156.024,187.603 156.532,187.032 157.154 M94.970 159.337 C 94.970 160.248,95.026 160.621,95.095 160.166 C 95.164 159.710,95.164 158.965,95.095 158.509 C 95.026 158.053,94.970 158.426,94.970 159.337 M304.910 159.639 C 304.910 160.550,304.966 160.922,305.035 160.467 C 305.104 160.011,305.104 159.266,305.035 158.810 C 304.966 158.355,304.910 158.727,304.910 159.639 M303.200 171.423 C 303.094 171.952,303.064 172.441,303.132 172.509 C 303.200 172.578,303.349 172.207,303.464 171.687 C 303.578 171.166,303.609 170.677,303.532 170.601 C 303.456 170.524,303.306 170.894,303.200 171.423 M274.241 225.377 L 271.235 228.464 274.322 225.457 C 276.020 223.804,277.410 222.415,277.410 222.370 C 277.410 222.152,277.034 222.509,274.241 225.377 M125.289 225.075 C 126.537 226.405,126.807 226.644,126.807 226.418 C 126.807 226.370,126.163 225.726,125.377 224.987 L 123.946 223.645 125.289 225.075 M223.494 253.327 C 223.164 253.550,223.286 253.578,223.946 253.431 C 225.053 253.183,225.294 253.011,224.523 253.017 C 224.206 253.019,223.742 253.159,223.494 253.327 M178.464 253.916 C 178.795 254.058,179.337 254.171,179.669 254.166 C 180.153 254.159,180.123 254.110,179.518 253.916 C 178.488 253.586,177.696 253.586,178.464 253.916 M220.482 253.916 C 219.877 254.110,219.847 254.159,220.331 254.166 C 220.663 254.171,221.205 254.058,221.536 253.916 C 222.304 253.586,221.512 253.586,220.482 253.916 M190.136 255.637 C 190.591 255.706,191.337 255.706,191.792 255.637 C 192.248 255.568,191.875 255.512,190.964 255.512 C 190.053 255.512,189.680 255.568,190.136 255.637 M208.208 255.637 C 208.663 255.706,209.409 255.706,209.864 255.637 C 210.320 255.568,209.947 255.512,209.036 255.512 C 208.125 255.512,207.752 255.568,208.208 255.637 M193.302 255.936 C 193.676 256.008,194.219 256.005,194.507 255.930 C 194.795 255.854,194.488 255.796,193.825 255.799 C 193.163 255.802,192.927 255.864,193.302 255.936 M205.651 255.936 C 206.026 256.008,206.568 256.005,206.856 255.930 C 207.144 255.854,206.837 255.796,206.175 255.799 C 205.512 255.802,205.276 255.864,205.651 255.936 " stroke="none" fill="#94ec94" fill-rule="evenodd"></path><path id="path5" d="" stroke="none" fill="#dcfcdc" fill-rule="evenodd"></path><path id="path6" d="" stroke="none" fill="#ccfccc" fill-rule="evenodd"></path><path id="path7" d="" stroke="none" fill="#e4fce4" fill-rule="evenodd"></path><path id="path8" d="" stroke="none" fill="#f4fcf4" fill-rule="evenodd"></path></g></svg>