<svg id="svg" version="1.1" xmlns="http://www.w3.org/2000/svg" xmlns:xlink="http://www.w3.org/1999/xlink" width="400" height="432" viewBox="0, 0, 400,432"><g id="svgg"><path id="path0" d="M106.002 198.600 L 105.995 294.400 178.998 294.400 L 252.000 294.400 252.078 268.900 C 252.121 254.875,252.186 242.725,252.221 241.900 L 252.286 240.400 243.547 240.400 L 234.808 240.400 234.704 258.700 L 234.600 277.000 179.200 277.000 L 123.800 277.000 123.699 198.700 L 123.598 120.400 179.199 120.400 L 234.800 120.400 234.800 138.608 L 234.800 156.816 243.410 156.708 L 252.020 156.600 252.022 130.200 C 252.023 115.680,252.019 103.575,252.012 103.300 C 252.002 102.902,237.128 102.800,179.005 102.800 L 106.010 102.800 106.002 198.600 M149.200 198.600 L 149.200 266.800 155.400 266.800 L 161.600 266.800 161.600 198.600 L 161.600 130.400 155.400 130.400 L 149.200 130.400 149.200 198.600 M252.400 176.138 C 252.400 178.922,252.355 181.243,252.300 181.295 C 252.245 181.348,233.930 181.483,211.600 181.595 L 171.000 181.800 171.000 198.800 L 171.000 215.800 211.700 215.902 L 252.400 216.004 252.400 221.022 C 252.400 225.217,252.492 225.987,252.962 225.720 C 253.515 225.405,259.363 219.950,272.400 207.586 C 276.030 204.143,279.614 200.787,280.364 200.128 C 281.126 199.459,281.606 198.733,281.451 198.483 C 281.198 198.072,255.305 173.579,253.284 171.838 L 252.400 171.076 252.400 176.138 " stroke="none" fill="#35cb36" fill-rule="evenodd"></path><path id="path1" d="M0.000 216.000 L 0.000 432.000 200.000 432.000 L 400.000 432.000 400.000 216.000 L 400.000 0.000 200.000 0.000 L 0.000 0.000 0.000 216.000 M252.610 102.417 C 252.790 102.707,252.952 148.664,252.805 157.724 C 252.802 157.902,252.620 157.936,252.400 157.800 C 252.180 157.664,251.997 157.788,251.994 158.076 C 251.989 158.505,251.927 158.504,251.653 158.073 C 251.391 157.659,249.548 157.565,243.123 157.636 C 238.615 157.685,234.719 157.597,234.464 157.439 C 234.123 157.229,234.000 152.373,234.000 139.176 L 234.000 121.200 232.700 121.199 C 231.985 121.198,207.370 121.194,178.000 121.189 L 124.600 121.181 124.499 198.790 L 124.398 276.400 179.199 276.400 L 234.000 276.400 234.000 258.633 C 234.000 248.861,234.109 240.581,234.243 240.233 C 234.518 239.515,252.138 239.253,252.575 239.959 C 252.732 240.214,252.940 288.771,252.811 295.124 C 252.805 295.412,252.620 295.536,252.400 295.400 C 252.180 295.264,251.986 295.388,251.968 295.676 C 251.944 296.079,251.890 296.085,251.735 295.700 C 251.575 295.303,236.686 295.200,179.167 295.200 C 121.557 295.200,106.794 295.302,106.768 295.700 C 106.743 296.097,106.695 296.097,106.534 295.698 C 106.423 295.421,106.172 295.293,105.978 295.414 C 105.145 295.928,104.892 103.784,105.724 102.500 C 106.151 101.840,252.203 101.757,252.610 102.417 M156.600 129.766 L 162.600 129.699 162.400 198.550 L 162.200 267.400 155.546 267.509 C 149.693 267.606,148.863 267.540,148.642 266.965 C 147.976 265.228,148.389 130.675,149.063 129.930 C 149.438 129.516,149.911 129.339,150.161 129.518 C 150.402 129.691,153.300 129.803,156.600 129.766 M253.026 170.358 C 252.904 170.555,253.064 170.816,253.382 170.938 C 253.783 171.092,253.897 170.952,253.754 170.480 C 253.641 170.106,253.838 170.299,254.192 170.909 C 254.843 172.032,259.200 176.520,259.200 176.068 C 259.200 175.933,259.482 176.225,259.827 176.718 C 260.177 177.217,260.664 177.494,260.927 177.343 C 261.187 177.194,261.269 177.217,261.108 177.395 C 260.817 177.716,262.068 178.976,270.249 186.600 C 272.609 188.800,274.896 190.999,275.331 191.486 C 275.765 191.974,276.261 192.286,276.433 192.180 C 276.604 192.074,276.875 192.198,277.034 192.455 C 277.232 192.776,277.146 192.817,276.762 192.585 C 276.453 192.398,277.648 193.676,279.417 195.423 C 283.340 199.296,284.143 200.278,283.052 199.869 C 282.181 199.542,278.277 202.277,278.680 202.930 C 278.814 203.146,278.736 203.208,278.507 203.066 C 277.811 202.636,276.993 203.966,276.824 205.800 C 276.804 206.020,276.614 205.930,276.401 205.600 C 276.086 205.111,275.569 205.458,273.607 207.473 C 272.283 208.833,271.200 209.878,271.200 209.796 C 271.200 209.714,270.345 210.490,269.300 211.520 C 268.255 212.551,267.445 213.530,267.500 213.697 C 267.555 213.864,267.375 214.004,267.100 214.009 C 266.825 214.014,264.646 215.904,262.257 218.209 C 259.868 220.514,257.743 222.400,257.533 222.400 C 257.324 222.400,257.251 222.560,257.372 222.755 C 257.493 222.950,257.289 223.355,256.919 223.655 C 256.340 224.124,256.295 224.116,256.592 223.600 C 256.809 223.224,256.614 223.284,256.070 223.761 C 255.398 224.350,255.305 224.645,255.658 225.070 C 256.023 225.509,255.970 225.563,255.391 225.341 C 254.852 225.134,254.753 225.200,255.000 225.600 C 255.245 225.996,255.150 226.066,254.639 225.870 C 254.074 225.653,253.994 225.769,254.200 226.503 C 254.376 227.127,254.338 227.235,254.077 226.859 C 253.789 226.443,253.510 226.420,252.875 226.760 C 251.729 227.373,251.540 226.875,251.799 223.920 C 252.175 219.627,251.673 216.342,250.651 216.422 C 250.183 216.459,231.890 216.469,210.000 216.444 L 170.200 216.400 170.267 198.953 C 170.305 189.356,170.491 181.349,170.682 181.158 C 170.873 180.967,189.020 180.803,211.106 180.794 C 249.026 180.779,251.204 180.740,251.563 180.070 C 251.771 179.680,251.875 177.357,251.794 174.906 C 251.664 170.982,251.728 170.428,252.323 170.271 C 252.696 170.173,253.056 170.072,253.124 170.046 C 253.192 170.021,253.148 170.161,253.026 170.358 " stroke="none" fill="#fbfcfb" fill-rule="evenodd"></path><path id="path2" d="M123.796 199.000 C 123.796 241.900,123.843 259.391,123.900 237.868 C 123.957 216.346,123.957 181.246,123.900 159.868 C 123.843 138.491,123.796 156.100,123.796 199.000 M152.100 130.297 C 153.805 130.372,156.595 130.372,158.300 130.297 C 160.005 130.222,158.610 130.161,155.200 130.161 C 151.790 130.161,150.395 130.222,152.100 130.297 M192.530 216.300 C 203.272 216.359,220.732 216.359,231.330 216.300 C 241.929 216.241,233.140 216.192,211.800 216.192 C 190.460 216.192,181.789 216.241,192.530 216.300 " stroke="none" fill="#acf3af" fill-rule="evenodd"></path><path id="path3" d="M252.187 130.200 C 252.187 142.960,252.238 148.238,252.300 141.929 C 252.362 135.619,252.362 125.179,252.300 118.729 C 252.238 112.278,252.187 117.440,252.187 130.200 M234.600 138.700 L 234.600 157.000 243.500 157.108 C 248.395 157.167,252.400 157.077,252.400 156.908 C 252.401 156.738,248.442 156.652,243.604 156.715 L 234.808 156.830 234.704 138.615 L 234.600 120.400 234.600 138.700 M148.998 198.800 L 149.000 267.000 155.200 267.015 L 161.400 267.030 155.301 266.905 L 149.202 266.780 149.099 198.690 L 148.997 130.600 148.998 198.800 M259.400 177.600 C 260.259 178.480,261.052 179.200,261.162 179.200 C 261.272 179.200,260.659 178.480,259.800 177.600 C 258.941 176.720,258.148 176.000,258.038 176.000 C 257.928 176.000,258.541 176.720,259.400 177.600 M170.800 181.500 C 170.800 181.772,199.609 181.769,237.400 181.494 C 245.320 181.437,233.575 181.347,211.300 181.295 C 189.025 181.243,170.800 181.335,170.800 181.500 M266.000 183.800 C 266.746 184.570,267.447 185.200,267.557 185.200 C 267.667 185.200,267.146 184.570,266.400 183.800 C 265.654 183.030,264.953 182.400,264.843 182.400 C 264.733 182.400,265.254 183.030,266.000 183.800 M273.000 190.400 C 273.859 191.280,274.652 192.000,274.762 192.000 C 274.872 192.000,274.259 191.280,273.400 190.400 C 272.541 189.520,271.748 188.800,271.638 188.800 C 271.528 188.800,272.141 189.520,273.000 190.400 M280.400 197.400 C 281.146 198.170,281.847 198.800,281.957 198.800 C 282.067 198.800,281.546 198.170,280.800 197.400 C 280.054 196.630,279.353 196.000,279.243 196.000 C 279.133 196.000,279.654 196.630,280.400 197.400 M277.781 202.500 L 276.200 204.200 277.900 202.619 C 279.481 201.148,279.784 200.800,279.481 200.800 C 279.416 200.800,278.651 201.565,277.781 202.500 M270.581 209.300 L 269.000 211.000 270.700 209.419 C 272.281 207.948,272.584 207.600,272.281 207.600 C 272.216 207.600,271.451 208.365,270.581 209.300 M263.775 215.700 L 262.600 217.000 263.900 215.825 C 264.615 215.179,265.200 214.594,265.200 214.525 C 265.200 214.216,264.870 214.488,263.775 215.700 M256.975 222.100 L 255.800 223.400 257.100 222.225 C 258.312 221.130,258.584 220.800,258.275 220.800 C 258.206 220.800,257.621 221.385,256.975 222.100 M234.661 240.300 C 234.558 240.465,237.113 240.554,240.337 240.497 C 251.158 240.306,252.263 240.162,243.524 240.080 C 238.752 240.036,234.763 240.135,234.661 240.300 M234.496 258.899 L 234.400 276.797 179.100 276.900 L 123.800 277.003 179.113 277.101 C 223.067 277.180,234.464 277.097,234.617 276.700 C 234.722 276.425,234.760 268.280,234.700 258.600 L 234.591 241.000 234.496 258.899 M252.188 269.000 C 252.188 283.080,252.239 288.782,252.300 281.671 C 252.361 274.560,252.361 263.040,252.300 256.071 C 252.238 249.102,252.188 254.920,252.188 269.000 M142.732 294.700 C 162.824 294.757,195.584 294.757,215.532 294.700 C 235.479 294.643,219.040 294.596,179.000 294.596 C 138.960 294.596,122.639 294.643,142.732 294.700 " stroke="none" fill="#84d484" fill-rule="evenodd"></path><path id="path4" d="M150.500 120.700 C 165.185 120.758,189.215 120.758,203.900 120.700 C 218.585 120.642,206.570 120.594,177.200 120.594 C 147.830 120.594,135.815 120.642,150.500 120.700 M231.705 120.687 C 232.314 120.779,233.214 120.777,233.705 120.682 C 234.197 120.587,233.700 120.511,232.600 120.514 C 231.500 120.517,231.097 120.595,231.705 120.687 M252.109 172.400 C 252.109 173.390,252.187 173.795,252.282 173.300 C 252.378 172.805,252.378 171.995,252.282 171.500 C 252.187 171.005,252.109 171.410,252.109 172.400 M252.131 178.200 C 252.133 179.740,252.205 180.321,252.292 179.491 C 252.379 178.661,252.377 177.401,252.289 176.691 C 252.200 175.981,252.129 176.660,252.131 178.200 M252.155 221.400 C 252.156 224.260,252.220 225.378,252.297 223.883 C 252.374 222.389,252.374 220.049,252.296 218.683 C 252.218 217.318,252.155 218.540,252.155 221.400 " stroke="none" fill="#c4fbc4" fill-rule="evenodd"></path><path id="path5" d="M143.132 102.700 C 163.224 102.757,195.984 102.757,215.932 102.700 C 235.879 102.643,219.440 102.596,179.400 102.596 C 139.360 102.596,123.039 102.643,143.132 102.700 M161.600 198.520 L 161.800 267.000 161.901 198.821 C 161.957 161.323,161.867 130.507,161.701 130.341 C 161.536 130.175,161.490 160.856,161.600 198.520 " stroke="none" fill="#8dda8c" fill-rule="evenodd"></path><path id="path6" d="M133.200 102.297 C 202.851 102.570,252.706 102.571,252.538 102.300 C 252.436 102.135,219.648 102.044,179.676 102.097 C 139.704 102.150,118.790 102.240,133.200 102.297 M105.293 105.600 C 105.293 106.370,105.375 106.685,105.476 106.300 C 105.576 105.915,105.576 105.285,105.476 104.900 C 105.375 104.515,105.293 104.830,105.293 105.600 M105.397 199.600 C 105.397 250.090,105.443 270.745,105.500 245.500 C 105.557 220.255,105.557 178.945,105.500 153.700 C 105.443 128.455,105.397 149.110,105.397 199.600 M124.185 121.300 C 124.080 121.575,124.041 156.630,124.097 199.200 L 124.200 276.600 124.400 198.700 C 124.510 155.855,124.549 120.800,124.487 120.800 C 124.426 120.800,124.289 121.025,124.185 121.300 M153.500 121.100 C 167.635 121.158,190.765 121.158,204.900 121.100 C 219.035 121.042,207.470 120.994,179.200 120.994 C 150.930 120.994,139.365 121.042,153.500 121.100 M234.181 139.000 C 234.181 147.140,234.234 150.413,234.300 146.274 C 234.365 142.134,234.365 135.474,234.299 131.474 C 234.234 127.473,234.181 130.860,234.181 139.000 M154.500 129.894 C 155.545 129.976,157.255 129.976,158.300 129.894 C 159.345 129.812,158.490 129.744,156.400 129.744 C 154.310 129.744,153.455 129.812,154.500 129.894 M162.195 197.800 C 162.195 233.440,162.242 247.961,162.300 230.068 C 162.358 212.176,162.358 183.016,162.300 165.268 C 162.242 147.521,162.195 162.160,162.195 197.800 M148.400 199.880 C 148.290 236.224,148.336 265.824,148.501 265.659 C 148.667 265.493,148.757 235.757,148.701 199.579 L 148.600 133.800 148.400 199.880 M252.854 155.867 C 252.825 156.344,252.696 157.064,252.570 157.467 C 252.352 158.161,252.364 158.162,252.796 157.488 C 253.047 157.097,253.175 156.377,253.081 155.888 C 252.909 155.001,252.909 155.001,252.854 155.867 M253.733 170.705 C 253.798 171.203,254.064 171.824,254.325 172.085 C 254.972 172.732,254.899 172.020,254.193 170.800 C 253.633 169.831,253.618 169.828,253.733 170.705 M255.613 173.100 C 255.619 173.265,256.114 173.746,256.713 174.168 L 257.800 174.936 256.830 173.868 C 255.811 172.746,255.592 172.607,255.613 173.100 M251.693 174.400 C 251.693 175.170,251.775 175.485,251.876 175.100 C 251.976 174.715,251.976 174.085,251.876 173.700 C 251.775 173.315,251.693 173.630,251.693 174.400 M266.379 183.378 C 266.907 183.940,267.400 184.400,267.473 184.400 C 267.834 184.400,266.539 182.785,266.018 182.586 C 265.688 182.459,265.851 182.816,266.379 183.378 M271.800 188.400 C 272.659 189.280,273.452 190.000,273.562 190.000 C 273.672 190.000,273.059 189.280,272.200 188.400 C 271.341 187.520,270.548 186.800,270.438 186.800 C 270.328 186.800,270.941 187.520,271.800 188.400 M281.724 199.432 C 281.334 200.273,281.343 200.379,281.773 200.022 C 282.062 199.782,282.609 199.705,282.989 199.851 C 283.604 200.087,283.621 200.022,283.143 199.258 C 282.460 198.163,282.304 198.182,281.724 199.432 M272.370 208.300 L 271.400 209.400 272.600 208.400 C 273.260 207.850,273.875 207.355,273.967 207.300 C 274.058 207.245,273.955 207.200,273.736 207.200 C 273.518 207.200,272.903 207.695,272.370 208.300 M263.375 216.900 L 262.200 218.200 263.500 217.025 C 264.215 216.379,264.800 215.794,264.800 215.725 C 264.800 215.416,264.470 215.688,263.375 216.900 M251.701 217.800 C 251.705 218.680,251.787 218.993,251.883 218.495 C 251.979 217.998,251.975 217.278,251.875 216.895 C 251.775 216.513,251.696 216.920,251.701 217.800 M254.667 225.067 C 254.260 225.473,254.349 226.000,254.824 226.000 C 255.057 226.000,255.117 225.789,254.958 225.532 C 254.762 225.215,254.889 225.149,255.355 225.327 C 255.763 225.484,255.942 225.430,255.797 225.195 C 255.514 224.738,255.049 224.685,254.667 225.067 M239.919 239.898 C 241.744 239.972,244.624 239.972,246.319 239.897 C 248.014 239.822,246.520 239.761,243.000 239.762 C 239.480 239.762,238.094 239.824,239.919 239.898 M234.000 259.280 C 233.890 268.894,233.937 276.623,234.104 276.456 C 234.272 276.288,234.362 268.422,234.304 258.976 L 234.200 241.800 234.000 259.280 M162.093 265.200 C 162.093 265.970,162.175 266.285,162.276 265.900 C 162.376 265.515,162.376 264.885,162.276 264.500 C 162.175 264.115,162.093 264.430,162.093 265.200 M155.107 267.490 C 155.826 267.579,156.906 267.577,157.507 267.486 C 158.108 267.395,157.520 267.322,156.200 267.324 C 154.880 267.326,154.388 267.401,155.107 267.490 M105.206 293.633 C 105.209 294.165,105.389 294.870,105.606 295.200 C 105.882 295.622,105.923 295.385,105.742 294.400 C 105.425 292.675,105.198 292.349,105.206 293.633 M252.846 293.667 C 252.821 294.034,252.696 294.664,252.570 295.067 C 252.352 295.762,252.363 295.763,252.797 295.087 C 253.048 294.696,253.173 294.066,253.073 293.687 C 252.911 293.068,252.888 293.066,252.846 293.667 " stroke="none" fill="#f8f4f4" fill-rule="evenodd"></path><path id="path7" d="M105.701 105.000 C 105.705 105.880,105.787 106.193,105.883 105.695 C 105.979 105.198,105.975 104.478,105.875 104.095 C 105.775 103.713,105.696 104.120,105.701 105.000 M105.797 200.600 C 105.797 252.080,105.843 273.081,105.900 247.268 C 105.957 221.455,105.957 179.335,105.900 153.668 C 105.843 128.001,105.797 149.120,105.797 200.600 M170.583 198.600 C 170.583 208.060,170.636 211.873,170.700 207.073 C 170.764 202.273,170.763 194.533,170.699 189.873 C 170.636 185.213,170.583 189.140,170.583 198.600 " stroke="none" fill="#d0fcd2" fill-rule="evenodd"></path><path id="path8" d="M252.497 130.114 L 252.400 157.229 243.238 157.114 C 238.198 157.051,234.159 157.135,234.261 157.300 C 234.605 157.854,252.402 157.660,252.616 157.100 C 252.721 156.825,252.759 144.540,252.701 129.800 L 252.594 103.000 252.497 130.114 M257.800 175.600 C 258.883 176.700,259.860 177.600,259.970 177.600 C 260.080 177.600,259.283 176.700,258.200 175.600 C 257.117 174.500,256.140 173.600,256.030 173.600 C 255.920 173.600,256.717 174.500,257.800 175.600 M264.200 181.600 C 265.059 182.480,265.852 183.200,265.962 183.200 C 266.072 183.200,265.459 182.480,264.600 181.600 C 263.741 180.720,262.948 180.000,262.838 180.000 C 262.728 180.000,263.341 180.720,264.200 181.600 M170.652 181.116 C 170.544 181.290,171.073 181.361,171.828 181.273 C 172.583 181.185,173.200 181.042,173.200 180.956 C 173.200 180.655,170.845 180.803,170.652 181.116 M270.685 187.603 C 272.492 189.451,274.034 190.882,274.112 190.782 C 274.190 190.682,272.712 189.170,270.827 187.421 L 267.400 184.242 270.685 187.603 M278.600 195.200 C 279.459 196.080,280.252 196.800,280.362 196.800 C 280.472 196.800,279.859 196.080,279.000 195.200 C 278.141 194.320,277.348 193.600,277.238 193.600 C 277.128 193.600,277.741 194.320,278.600 195.200 M277.004 203.596 C 276.374 204.254,275.935 204.856,276.029 204.934 C 276.123 205.012,276.713 204.474,277.339 203.738 C 278.754 202.077,278.545 201.988,277.004 203.596 M269.588 210.686 C 267.010 213.360,267.009 213.363,269.226 211.386 C 271.150 209.670,272.662 208.000,272.292 208.000 C 272.229 208.000,271.012 209.209,269.588 210.686 M262.786 217.086 L 260.600 219.371 263.000 217.209 C 264.320 216.020,265.475 214.992,265.567 214.924 C 265.658 214.856,265.562 214.800,265.353 214.800 C 265.144 214.800,263.989 215.828,262.786 217.086 M254.400 225.000 C 253.428 225.990,252.723 226.800,252.833 226.800 C 252.943 226.800,253.828 225.990,254.800 225.000 C 255.772 224.010,256.477 223.200,256.367 223.200 C 256.257 223.200,255.372 224.010,254.400 225.000 M249.905 239.883 C 250.402 239.979,251.122 239.975,251.505 239.875 C 251.887 239.775,251.480 239.696,250.600 239.701 C 249.720 239.705,249.407 239.787,249.905 239.883 M252.497 267.699 L 252.400 294.798 179.700 294.900 L 107.000 295.002 179.713 295.101 C 237.587 295.180,252.464 295.098,252.616 294.700 C 252.721 294.425,252.759 282.140,252.701 267.400 L 252.594 240.600 252.497 267.699 M149.300 267.476 C 149.685 267.576,150.315 267.576,150.700 267.476 C 151.085 267.375,150.770 267.293,150.000 267.293 C 149.230 267.293,148.915 267.375,149.300 267.476 M125.100 276.689 C 125.815 276.778,126.985 276.778,127.700 276.689 C 128.415 276.601,127.830 276.528,126.400 276.528 C 124.970 276.528,124.385 276.601,125.100 276.689 " stroke="none" fill="#defcda" fill-rule="evenodd"></path></g></svg>